<svg xmlns="http://www.w3.org/2000/svg" xmlns:svgjs="http://svgjs.com/svgjs" xmlns:xlink="http://www.w3.org/1999/xlink" width="288" height="288"><svg xmlns="http://www.w3.org/2000/svg" width="288" height="288" viewBox="0 0 24 24"><path fill="#252525" d="M11.433 17.069c-.546 0-1.069-.299-1.242-.408-1.482-.904-2.414-3.382-2.319-5.038.032-.455.125-.932.283-1.468l.004-.014c.245-.749.624-1.435.991-2.099.29-.526.566-1.023.776-1.545.271-.648.347-1.199.22-1.597a1.768 1.768 0 0 0-.401-.65 2.152 2.152 0 0 0-.289-.262.501.501 0 0 1-.103-.971c.888-.3 1.659.02 2.233.331.486.259.903.638 1.236 1.124.475.681.746 1.479.878 2.582.008.075.012.156.017.247.007.164.027.599.116.696.005-.047.179-.289.258-.515.141-.417-.038-.85-.328-1.461a.5.5 0 0 1 .889-.458.822.822 0 0 1 .14.08c.062.042.12.081.162.114l.415.354c.513.474.876 1.062 1.126 1.811.177.52.282 1.092.323 1.746.089 1.198-.217 3.442-.744 4.529a5.056 5.056 0 0 1-.955 1.394c-.228.239-.49.423-.743.601-.167.117-.335.234-.487.369l-.001.001a.5.5 0 0 1-.667-.746c.802-.72.825-2.078.825-2.23 0-.579-.851-1.874-1.543-2.679-.05.233-.147.477-.295.733a9.898 9.898 0 0 1-.624.924c-.533.728-.993 1.356-.848 2.292.067.429.116.739 1.145 1.229a.498.498 0 0 1-.068.928c-.125.04-.253.056-.38.056zm-2.322-6.624c-.136.463-.216.87-.242 1.243-.05.866.288 2.095.846 3.025-.077-1.184.525-2.007 1.062-2.74.196-.268.396-.539.563-.831.159-.277.221-.491.193-.674-.016-.103-.094-.348-.144-.414a.516.516 0 0 1-.068-.509.5.5 0 0 1 .396-.309c.312-.033.61.112 1.009.469.912.816 2.318 2.85 2.318 3.879 0 .083-.004.253-.027.478.054-.096.104-.195.153-.298.443-.915.727-2.979.648-4.031a5.676 5.676 0 0 0-.273-1.494 3.663 3.663 0 0 0-.416-.878 1.895 1.895 0 0 1-.094.444c-.031.09-.305.827-.858 1.083a.903.903 0 0 1-.722.027c-.678-.249-.717-1.108-.738-1.57l-.011-.184c-.109-.92-.327-1.578-.706-2.121a2.493 2.493 0 0 0-.886-.811 4.273 4.273 0 0 0-.233-.118c.091.157.164.32.217.484.203.638.12 1.405-.247 2.281-.23.572-.533 1.121-.826 1.65-.359.65-.698 1.264-.914 1.919zm10.932 9.386a.5.5 0 0 1-.319-.886A8.971 8.971 0 0 0 23 12a8.972 8.972 0 0 0-3.315-6.978.5.5 0 1 1 .633-.774A9.97 9.97 0 0 1 24 12a9.97 9.97 0 0 1-3.639 7.716.498.498 0 0 1-.318.115zm-16.086 0a.502.502 0 0 1-.318-.114A9.974 9.974 0 0 1 0 12a9.967 9.967 0 0 1 3.683-7.752.5.5 0 1 1 .633.774A8.97 8.97 0 0 0 1 12a8.974 8.974 0 0 0 3.275 6.945.5.5 0 0 1-.318.886zM17.5 19h-11a.5.5 0 0 1 0-1h11a.5.5 0 0 1 0 1z" class="color000 svgShape"/></svg></svg>