<svg width="288" height="288" viewBox="0 0 288 288" fill="none" xmlns="http://www.w3.org/2000/svg">
<path d="M245.64 24H42.36C40.0749 23.9683 37.806 24.387 35.6828 25.2322C33.5596 26.0774 31.6236 27.3326 29.9856 28.9261C28.3475 30.5196 27.0394 32.4202 26.1359 34.5193C25.2324 36.6184 24.7513 38.8749 24.72 41.16V246.84C24.7513 249.125 25.2324 251.382 26.1359 253.481C27.0394 255.58 28.3475 257.48 29.9856 259.074C31.6236 260.667 33.5596 261.923 35.6828 262.768C37.806 263.613 40.0749 264.032 42.36 264H245.64C247.925 264.032 250.194 263.613 252.317 262.768C254.44 261.923 256.376 260.667 258.014 259.074C259.652 257.48 260.961 255.58 261.864 253.481C262.768 251.382 263.249 249.125 263.28 246.84V41.16C263.249 38.8749 262.768 36.6184 261.864 34.5193C260.961 32.4202 259.652 30.5196 258.014 28.9261C256.376 27.3326 254.44 26.0774 252.317 25.2322C250.194 24.387 247.925 23.9683 245.64 24ZM97.08 224.88H61.08V116.88H97.08V224.88ZM79.08 101.76C74.1152 101.76 69.3536 99.7877 65.843 96.277C62.3323 92.7664 60.36 88.0049 60.36 83.04C60.36 78.0751 62.3323 73.3136 65.843 69.803C69.3536 66.2923 74.1152 64.32 79.08 64.32C81.7164 64.021 84.3861 64.2822 86.9145 65.0866C89.4429 65.891 91.7729 67.2203 93.7519 68.9875C95.7309 70.7548 97.3143 72.9201 98.3985 75.3418C99.4826 77.7634 100.043 80.3868 100.043 83.04C100.043 85.6932 99.4826 88.3166 98.3985 90.7382C97.3143 93.1599 95.7309 95.3252 93.7519 97.0925C91.7729 98.8597 89.4429 100.189 86.9145 100.993C84.3861 101.798 81.7164 102.059 79.08 101.76ZM226.92 224.88H190.92V166.92C190.92 152.4 185.76 142.92 172.68 142.92C168.632 142.95 164.69 144.219 161.386 146.558C158.082 148.897 155.574 152.192 154.2 156C153.261 158.82 152.854 161.791 153 164.76V224.76H117C117 224.76 117 126.6 117 116.76H153V132C156.27 126.325 161.027 121.65 166.757 118.478C172.488 115.307 178.975 113.758 185.52 114C209.52 114 226.92 129.48 226.92 162.72V224.88Z" fill="#2DBE94"/>
</svg>
